{
    "asset" : {
        "generator" : "Khronos glTF Blender I/O v1.3.48",
        "version" : "2.0"
    },
    "scene" : 0,
    "scenes" : [
        {
            "name" : "Scene",
            "nodes" : [
                8
            ]
        }
    ],
    "nodes" : [
        {
            "mesh" : 0,
            "name" : "Mesh_18"
        },
        {
            "mesh" : 1,
            "name" : "Mesh_19"
        },
        {
            "mesh" : 2,
            "name" : "Mesh_2",
            "rotation" : [
                -0.24957290291786194,
                0.6026812195777893,
                0.456088125705719,
                0.6053697466850281
            ],
            "translation" : [
                -2.0089728832244873,
                -8.05026912689209,
                3.8675901889801025
            ]
        },
        {
            "mesh" : 3,
            "name" : "Mesh_21"
        },
        {
            "mesh" : 4,
            "name" : "Mesh_3"
        },
        {
            "mesh" : 5,
            "name" : "Mesh_4"
        },
        {
            "mesh" : 6,
            "name" : "Mesh_7"
        },
        {
            "children" : [
                0,
                1,
                2,
                3,
                4,
                5,
                6
            ],
            "name" : "Boat.obj.cleaner.materialmerger.gles"
        },
        {
            "children" : [
                7
            ],
            "name" : "RootNode (model correction matrix)",
            "rotation" : [
                -0.7071068286895752,
                0,
                0,
                0.7071067094802856
            ]
        }
    ],
    "animations" : [
        {
            "channels" : [
                {
                    "sampler" : 0,
                    "target" : {
                        "node" : 2,
                        "path" : "translation"
                    }
                },
                {
                    "sampler" : 1,
                    "target" : {
                        "node" : 2,
                        "path" : "rotation"
                    }
                },
                {
                    "sampler" : 2,
                    "target" : {
                        "node" : 2,
                        "path" : "scale"
                    }
                }
            ],
            "name" : "Mesh_2|Take 001|BaseLayer",
            "samplers" : [
                {
                    "input" : 28,
                    "interpolation" : "LINEAR",
                    "output" : 29
                },
                {
                    "input" : 28,
                    "interpolation" : "LINEAR",
                    "output" : 30
                },
                {
                    "input" : 28,
                    "interpolation" : "LINEAR",
                    "output" : 31
                }
            ]
        }
    ],
    "materials" : [
        {
            "doubleSided" : true,
            "emissiveFactor" : [
                0,
                0,
                0
            ],
            "name" : "lambert8SG",
            "pbrMetallicRoughness" : {
                "metallicFactor" : 0,
                "roughnessFactor" : 0.5
            }
        },
        {
            "doubleSided" : true,
            "emissiveFactor" : [
                0,
                0,
                0
            ],
            "name" : "lambert5SG",
            "pbrMetallicRoughness" : {
                "metallicFactor" : 0,
                "roughnessFactor" : 0.5
            }
        },
        {
            "doubleSided" : true,
            "emissiveFactor" : [
                0,
                0,
                0
            ],
            "name" : "lambert7SG",
            "pbrMetallicRoughness" : {
                "metallicFactor" : 0,
                "roughnessFactor" : 0.5
            }
        },
        {
            "doubleSided" : true,
            "emissiveFactor" : [
                0,
                0,
                0
            ],
            "name" : "lambert9SG",
            "pbrMetallicRoughness" : {
                "metallicFactor" : 0,
                "roughnessFactor" : 0.5
            }
        },
        {
            "doubleSided" : true,
            "emissiveFactor" : [
                0,
                0,
                0
            ],
            "name" : "lambert2SG",
            "pbrMetallicRoughness" : {
                "metallicFactor" : 0,
                "roughnessFactor" : 0.5
            }
        }
    ],
    "meshes" : [
        {
            "name" : "Mesh",
            "primitives" : [
                {
                    "attributes" : {
                        "POSITION" : 0,
                        "NORMAL" : 1,
                        "TEXCOORD_0" : 2
                    },
                    "indices" : 3,
                    "material" : 0
                }
            ]
        },
        {
            "name" : "Mesh.001",
            "primitives" : [
                {
                    "attributes" : {
                        "POSITION" : 4,
                        "NORMAL" : 5,
                        "TEXCOORD_0" : 6
                    },
                    "indices" : 7,
                    "material" : 0
                }
            ]
        },
        {
            "name" : "Mesh.002",
            "primitives" : [
                {
                    "attributes" : {
                        "POSITION" : 8,
                        "NORMAL" : 9,
                        "TEXCOORD_0" : 10
                    },
                    "indices" : 11,
                    "material" : 1
                }
            ]
        },
        {
            "name" : "Mesh.003",
            "primitives" : [
                {
                    "attributes" : {
                        "POSITION" : 12,
                        "NORMAL" : 13,
                        "TEXCOORD_0" : 14
                    },
                    "indices" : 15,
                    "material" : 0
                }
            ]
        },
        {
            "name" : "Mesh.004",
            "primitives" : [
                {
                    "attributes" : {
                        "POSITION" : 16,
                        "NORMAL" : 17,
                        "TEXCOORD_0" : 18
                    },
                    "indices" : 19,
                    "material" : 2
                }
            ]
        },
        {
            "name" : "Mesh.005",
            "primitives" : [
                {
                    "attributes" : {
                        "POSITION" : 20,
                        "NORMAL" : 21,
                        "TEXCOORD_0" : 22
                    },
                    "indices" : 23,
                    "material" : 3
                }
            ]
        },
        {
            "name" : "Mesh.006",
            "primitives" : [
                {
                    "attributes" : {
                        "POSITION" : 24,
                        "NORMAL" : 25,
                        "TEXCOORD_0" : 26
                    },
                    "indices" : 27,
                    "material" : 4
                }
            ]
        }
    ],
    "accessors" : [
        {
            "bufferView" : 0,
            "componentType" : 5126,
            "count" : 2063,
            "max" : [
                3.110830068588257,
                4.954500198364258,
                3.241460084915161
            ],
            "min" : [
                -3.085170030593872,
                -5.177370071411133,
                0.3725860118865967
            ],
            "type" : "VEC3"
        },
        {
            "bufferView" : 1,
            "componentType" : 5126,
            "count" : 2063,
            "type" : "VEC3"
        },
        {
            "bufferView" : 2,
            "componentType" : 5126,
            "count" : 2063,
            "type" : "VEC2"
        },
        {
            "bufferView" : 3,
            "componentType" : 5123,
            "count" : 9216,
            "type" : "SCALAR"
        },
        {
            "bufferView" : 4,
            "componentType" : 5126,
            "count" : 887,
            "max" : [
                1.8863500356674194,
                4.954500198364258,
                3.3677000999450684
            ],
            "min" : [
                -0.12774799764156342,
                -5.14355993270874,
                2.633389949798584
            ],
            "type" : "VEC3"
        },
        {
            "bufferView" : 5,
            "componentType" : 5126,
            "count" : 887,
            "type" : "VEC3"
        },
        {
            "bufferView" : 6,
            "componentType" : 5126,
            "count" : 887,
            "type" : "VEC2"
        },
        {
            "bufferView" : 7,
            "componentType" : 5123,
            "count" : 3744,
            "type" : "SCALAR"
        },
        {
            "bufferView" : 8,
            "componentType" : 5126,
            "count" : 3917,
            "max" : [
                2.40474009513855,
                -2.0599799156188965,
                1.3873100280761719
            ],
            "min" : [
                1.4129199981689453,
                -15.680100440979004,
                -0.8186200261116028
            ],
            "type" : "VEC3"
        },
        {
            "bufferView" : 9,
            "componentType" : 5126,
            "count" : 3917,
            "type" : "VEC3"
        },
        {
            "bufferView" : 10,
            "componentType" : 5126,
            "count" : 3917,
            "type" : "VEC2"
        },
        {
            "bufferView" : 11,
            "componentType" : 5123,
            "count" : 14880,
            "type" : "SCALAR"
        },
        {
            "bufferView" : 12,
            "componentType" : 5126,
            "count" : 3431,
            "max" : [
                2.9364399909973145,
                -5.079529762268066,
                3.317610025405884
            ],
            "min" : [
                -2.931570053100586,
                -5.228950023651123,
                -0.5247740149497986
            ],
            "type" : "VEC3"
        },
        {
            "bufferView" : 13,
            "componentType" : 5126,
            "count" : 3431,
            "type" : "VEC3"
        },
        {
            "bufferView" : 14,
            "componentType" : 5126,
            "count" : 3431,
            "type" : "VEC2"
        },
        {
            "bufferView" : 15,
            "componentType" : 5123,
            "count" : 17856,
            "type" : "SCALAR"
        },
        {
            "bufferView" : 16,
            "componentType" : 5126,
            "count" : 1010,
            "max" : [
                3.0347800254821777,
                4.888589859008789,
                3.2311899662017822
            ],
            "min" : [
                -3.0485498905181885,
                -5.0977301597595215,
                -0.5832639932632446
            ],
            "type" : "VEC3"
        },
        {
            "bufferView" : 17,
            "componentType" : 5126,
            "count" : 1010,
            "type" : "VEC3"
        },
        {
            "bufferView" : 18,
            "componentType" : 5126,
            "count" : 1010,
            "type" : "VEC2"
        },
        {
            "bufferView" : 19,
            "componentType" : 5123,
            "count" : 5568,
            "type" : "SCALAR"
        },
        {
            "bufferView" : 20,
            "componentType" : 5126,
            "count" : 4084,
            "max" : [
                3.2188398838043213,
                5.127699851989746,
                3.43435001373291
            ],
            "min" : [
                -3.264240026473999,
                0.4399450123310089,
                0.1614910066127777
            ],
            "type" : "VEC3"
        },
        {
            "bufferView" : 21,
            "componentType" : 5126,
            "count" : 4084,
            "type" : "VEC3"
        },
        {
            "bufferView" : 22,
            "componentType" : 5126,
            "count" : 4084,
            "type" : "VEC2"
        },
        {
            "bufferView" : 23,
            "componentType" : 5123,
            "count" : 21408,
            "type" : "SCALAR"
        },
        {
            "bufferView" : 24,
            "componentType" : 5126,
            "count" : 17187,
            "max" : [
                3.5881400108337402,
                19.387300491333008,
                2.2501299381256104
            ],
            "min" : [
                -3.58801007270813,
                -19.387300491333008,
                -3.5161800384521484
            ],
            "type" : "VEC3"
        },
        {
            "bufferView" : 25,
            "componentType" : 5126,
            "count" : 17187,
            "type" : "VEC3"
        },
        {
            "bufferView" : 26,
            "componentType" : 5126,
            "count" : 17187,
            "type" : "VEC2"
        },
        {
            "bufferView" : 27,
            "componentType" : 5123,
            "count" : 89472,
            "type" : "SCALAR"
        },
        {
            "bufferView" : 28,
            "componentType" : 5126,
            "count" : 24,
            "max" : [
                1.0416666666666667
            ],
            "min" : [
                0.08333333333333333
            ],
            "type" : "SCALAR"
        },
        {
            "bufferView" : 29,
            "componentType" : 5126,
            "count" : 24,
            "type" : "VEC3"
        },
        {
            "bufferView" : 30,
            "componentType" : 5126,
            "count" : 24,
            "type" : "VEC4"
        },
        {
            "bufferView" : 31,
            "componentType" : 5126,
            "count" : 24,
            "type" : "VEC3"
        }
    ],
    "bufferViews" : [
        {
            "buffer" : 0,
            "byteLength" : 24756,
            "byteOffset" : 0
        },
        {
            "buffer" : 0,
            "byteLength" : 24756,
            "byteOffset" : 24756
        },
        {
            "buffer" : 0,
            "byteLength" : 16504,
            "byteOffset" : 49512
        },
        {
            "buffer" : 0,
            "byteLength" : 18432,
            "byteOffset" : 66016
        },
        {
            "buffer" : 0,
            "byteLength" : 10644,
            "byteOffset" : 84448
        },
        {
            "buffer" : 0,
            "byteLength" : 10644,
            "byteOffset" : 95092
        },
        {
            "buffer" : 0,
            "byteLength" : 7096,
            "byteOffset" : 105736
        },
        {
            "buffer" : 0,
            "byteLength" : 7488,
            "byteOffset" : 112832
        },
        {
            "buffer" : 0,
            "byteLength" : 47004,
            "byteOffset" : 120320
        },
        {
            "buffer" : 0,
            "byteLength" : 47004,
            "byteOffset" : 167324
        },
        {
            "buffer" : 0,
            "byteLength" : 31336,
            "byteOffset" : 214328
        },
        {
            "buffer" : 0,
            "byteLength" : 29760,
            "byteOffset" : 245664
        },
        {
            "buffer" : 0,
            "byteLength" : 41172,
            "byteOffset" : 275424
        },
        {
            "buffer" : 0,
            "byteLength" : 41172,
            "byteOffset" : 316596
        },
        {
            "buffer" : 0,
            "byteLength" : 27448,
            "byteOffset" : 357768
        },
        {
            "buffer" : 0,
            "byteLength" : 35712,
            "byteOffset" : 385216
        },
        {
            "buffer" : 0,
            "byteLength" : 12120,
            "byteOffset" : 420928
        },
        {
            "buffer" : 0,
            "byteLength" : 12120,
            "byteOffset" : 433048
        },
        {
            "buffer" : 0,
            "byteLength" : 8080,
            "byteOffset" : 445168
        },
        {
            "buffer" : 0,
            "byteLength" : 11136,
            "byteOffset" : 453248
        },
        {
            "buffer" : 0,
            "byteLength" : 49008,
            "byteOffset" : 464384
        },
        {
            "buffer" : 0,
            "byteLength" : 49008,
            "byteOffset" : 513392
        },
        {
            "buffer" : 0,
            "byteLength" : 32672,
            "byteOffset" : 562400
        },
        {
            "buffer" : 0,
            "byteLength" : 42816,
            "byteOffset" : 595072
        },
        {
            "buffer" : 0,
            "byteLength" : 206244,
            "byteOffset" : 637888
        },
        {
            "buffer" : 0,
            "byteLength" : 206244,
            "byteOffset" : 844132
        },
        {
            "buffer" : 0,
            "byteLength" : 137496,
            "byteOffset" : 1050376
        },
        {
            "buffer" : 0,
            "byteLength" : 178944,
            "byteOffset" : 1187872
        },
        {
            "buffer" : 0,
            "byteLength" : 96,
            "byteOffset" : 1366816
        },
        {
            "buffer" : 0,
            "byteLength" : 288,
            "byteOffset" : 1366912
        },
        {
            "buffer" : 0,
            "byteLength" : 384,
            "byteOffset" : 1367200
        },
        {
            "buffer" : 0,
            "byteLength" : 288,
            "byteOffset" : 1367584
        }
    ],
    "buffers" : [
        {
            "byteLength" : 1367872,
            "uri" : "data:application/octet-stream;base64,"
        }
    ]
}
