{
    "asset" : {
        "generator" : "Khronos glTF Blender I/O v1.3.48",
        "version" : "2.0"
    },
    "scene" : 0,
    "scenes" : [
        {
            "name" : "Scene",
            "nodes" : [
                14
            ]
        }
    ],
    "nodes" : [
        {
            "mesh" : 0,
            "name" : "plane1",
            "translation" : [
                0.003381576621904969,
                0,
                0
            ]
        },
        {
            "mesh" : 1,
            "name" : "plane2",
            "translation" : [
                0.0033817291259765625,
                0,
                0
            ]
        },
        {
            "mesh" : 2,
            "name" : "plane3",
            "translation" : [
                0.003381576621904969,
                0,
                0
            ]
        },
        {
            "mesh" : 3,
            "name" : "plane4",
            "translation" : [
                0.0033817291259765625,
                0,
                0
            ]
        },
        {
            "mesh" : 4,
            "name" : "plane5",
            "translation" : [
                0.003381576621904969,
                0,
                0
            ]
        },
        {
            "mesh" : 5,
            "name" : "plane6",
            "translation" : [
                0.0033817291259765625,
                0,
                0
            ]
        },
        {
            "mesh" : 6,
            "name" : "plane7",
            "translation" : [
                0.003381576621904969,
                0,
                0
            ]
        },
        {
            "mesh" : 7,
            "name" : "plane8",
            "translation" : [
                0.0033817291259765625,
                0,
                0
            ]
        },
        {
            "name" : "transform1",
            "translation" : [
                166.02426147460938,
                0,
                0
            ]
        },
        {
            "name" : "transform2",
            "translation" : [
                166.02426147460938,
                0,
                0
            ]
        },
        {
            "name" : "transform3",
            "translation" : [
                166.02426147460938,
                0,
                0
            ]
        },
        {
            "name" : "transform4"
        },
        {
            "name" : "transform5"
        },
        {
            "children" : [
                0,
                1,
                2,
                3,
                4,
                5,
                6,
                7,
                8,
                9,
                10,
                11,
                12
            ],
            "name" : "plane"
        },
        {
            "children" : [
                13
            ],
            "name" : "bridge",
            "rotation" : [
                0.7071068286895752,
                0,
                0,
                0.7071067094802856
            ],
            "scale" : [
                0.009999999776482582,
                0.009999998845160007,
                0.009999998845160007
            ]
        }
    ],
    "materials" : [
        {
            "doubleSided" : true,
            "emissiveFactor" : [
                0,
                0,
                0
            ],
            "name" : "lambert2",
            "pbrMetallicRoughness" : {
                "baseColorTexture" : {
                    "index" : 0,
                    "texCoord" : 0
                },
                "metallicFactor" : 0,
                "roughnessFactor" : 0.5527864098548889
            }
        }
    ],
    "meshes" : [
        {
            "name" : "Mesh",
            "primitives" : [
                {
                    "attributes" : {
                        "POSITION" : 0,
                        "NORMAL" : 1,
                        "TEXCOORD_0" : 2
                    },
                    "indices" : 3,
                    "material" : 0
                }
            ]
        },
        {
            "name" : "Mesh.001",
            "primitives" : [
                {
                    "attributes" : {
                        "POSITION" : 4,
                        "NORMAL" : 5,
                        "TEXCOORD_0" : 6
                    },
                    "indices" : 7,
                    "material" : 0
                }
            ]
        },
        {
            "name" : "Mesh.002",
            "primitives" : [
                {
                    "attributes" : {
                        "POSITION" : 8,
                        "NORMAL" : 9,
                        "TEXCOORD_0" : 10
                    },
                    "indices" : 11,
                    "material" : 0
                }
            ]
        },
        {
            "name" : "Mesh.003",
            "primitives" : [
                {
                    "attributes" : {
                        "POSITION" : 12,
                        "NORMAL" : 13,
                        "TEXCOORD_0" : 14
                    },
                    "indices" : 15,
                    "material" : 0
                }
            ]
        },
        {
            "name" : "Mesh.004",
            "primitives" : [
                {
                    "attributes" : {
                        "POSITION" : 16,
                        "NORMAL" : 17,
                        "TEXCOORD_0" : 18
                    },
                    "indices" : 3,
                    "material" : 0
                }
            ]
        },
        {
            "name" : "Mesh.005",
            "primitives" : [
                {
                    "attributes" : {
                        "POSITION" : 19,
                        "NORMAL" : 20,
                        "TEXCOORD_0" : 21
                    },
                    "indices" : 7,
                    "material" : 0
                }
            ]
        },
        {
            "name" : "Mesh.006",
            "primitives" : [
                {
                    "attributes" : {
                        "POSITION" : 22,
                        "NORMAL" : 23,
                        "TEXCOORD_0" : 24
                    },
                    "indices" : 11,
                    "material" : 0
                }
            ]
        },
        {
            "name" : "Mesh.007",
            "primitives" : [
                {
                    "attributes" : {
                        "POSITION" : 25,
                        "NORMAL" : 26,
                        "TEXCOORD_0" : 27
                    },
                    "indices" : 15,
                    "material" : 0
                }
            ]
        }
    ],
    "textures" : [
        {
            "source" : 0
        }
    ],
    "images" : [
        {
            "mimeType" : "image/png",
            "name" : "1001_Base_Color",
            "uri" : "1001_Base_Color.png"
        }
    ],
    "accessors" : [
        {
            "bufferView" : 0,
            "componentType" : 5126,
            "count" : 129,
            "max" : [
                19.83499526977539,
                1.5789510143804364e-08,
                0.5
            ],
            "min" : [
                -19.83499526977539,
                -65.51924133300781,
                -25.21107292175293
            ],
            "type" : "VEC3"
        },
        {
            "bufferView" : 1,
            "componentType" : 5126,
            "count" : 129,
            "type" : "VEC3"
        },
        {
            "bufferView" : 2,
            "componentType" : 5126,
            "count" : 129,
            "type" : "VEC2"
        },
        {
            "bufferView" : 3,
            "componentType" : 5123,
            "count" : 288,
            "type" : "SCALAR"
        },
        {
            "bufferView" : 4,
            "componentType" : 5126,
            "count" : 32,
            "max" : [
                19.066043853759766,
                -64.39954376220703,
                0.5
            ],
            "min" : [
                14.107192993164062,
                -75.67001342773438,
                -9.246591567993164
            ],
            "type" : "VEC3"
        },
        {
            "bufferView" : 5,
            "componentType" : 5126,
            "count" : 32,
            "type" : "VEC3"
        },
        {
            "bufferView" : 6,
            "componentType" : 5126,
            "count" : 32,
            "type" : "VEC2"
        },
        {
            "bufferView" : 7,
            "componentType" : 5123,
            "count" : 60,
            "type" : "SCALAR"
        },
        {
            "bufferView" : 8,
            "componentType" : 5126,
            "count" : 584,
            "max" : [
                14.604899406433105,
                -64.60818481445312,
                0.5
            ],
            "min" : [
                -14.604899406433105,
                -75.27262878417969,
                -8.835914611816406
            ],
            "type" : "VEC3"
        },
        {
            "bufferView" : 9,
            "componentType" : 5126,
            "count" : 584,
            "type" : "VEC3"
        },
        {
            "bufferView" : 10,
            "componentType" : 5126,
            "count" : 584,
            "type" : "VEC2"
        },
        {
            "bufferView" : 11,
            "componentType" : 5123,
            "count" : 2244,
            "type" : "SCALAR"
        },
        {
            "bufferView" : 12,
            "componentType" : 5126,
            "count" : 32,
            "max" : [
                -14.107192993164062,
                -64.39954376220703,
                0.5
            ],
            "min" : [
                -19.066043853759766,
                -75.67001342773438,
                -9.246591567993164
            ],
            "type" : "VEC3"
        },
        {
            "bufferView" : 13,
            "componentType" : 5126,
            "count" : 32,
            "type" : "VEC3"
        },
        {
            "bufferView" : 14,
            "componentType" : 5126,
            "count" : 32,
            "type" : "VEC2"
        },
        {
            "bufferView" : 15,
            "componentType" : 5123,
            "count" : 60,
            "type" : "SCALAR"
        },
        {
            "bufferView" : 16,
            "componentType" : 5126,
            "count" : 129,
            "max" : [
                19.83499526977539,
                65.51924133300781,
                0.5
            ],
            "min" : [
                -19.83499526977539,
                -3.822147846221924e-06,
                -25.21107292175293
            ],
            "type" : "VEC3"
        },
        {
            "bufferView" : 17,
            "componentType" : 5126,
            "count" : 129,
            "type" : "VEC3"
        },
        {
            "bufferView" : 18,
            "componentType" : 5126,
            "count" : 129,
            "type" : "VEC2"
        },
        {
            "bufferView" : 19,
            "componentType" : 5126,
            "count" : 32,
            "max" : [
                -14.107192993164062,
                75.67001342773438,
                0.5
            ],
            "min" : [
                -19.066043853759766,
                64.39954376220703,
                -9.246591567993164
            ],
            "type" : "VEC3"
        },
        {
            "bufferView" : 20,
            "componentType" : 5126,
            "count" : 32,
            "type" : "VEC3"
        },
        {
            "bufferView" : 21,
            "componentType" : 5126,
            "count" : 32,
            "type" : "VEC2"
        },
        {
            "bufferView" : 22,
            "componentType" : 5126,
            "count" : 584,
            "max" : [
                14.604899406433105,
                75.27262878417969,
                0.5
            ],
            "min" : [
                -14.604899406433105,
                64.60818481445312,
                -8.835914611816406
            ],
            "type" : "VEC3"
        },
        {
            "bufferView" : 23,
            "componentType" : 5126,
            "count" : 584,
            "type" : "VEC3"
        },
        {
            "bufferView" : 24,
            "componentType" : 5126,
            "count" : 584,
            "type" : "VEC2"
        },
        {
            "bufferView" : 25,
            "componentType" : 5126,
            "count" : 32,
            "max" : [
                19.066043853759766,
                75.67001342773438,
                0.5
            ],
            "min" : [
                14.107192993164062,
                64.39954376220703,
                -9.246591567993164
            ],
            "type" : "VEC3"
        },
        {
            "bufferView" : 26,
            "componentType" : 5126,
            "count" : 32,
            "type" : "VEC3"
        },
        {
            "bufferView" : 27,
            "componentType" : 5126,
            "count" : 32,
            "type" : "VEC2"
        }
    ],
    "bufferViews" : [
        {
            "buffer" : 0,
            "byteLength" : 1548,
            "byteOffset" : 0
        },
        {
            "buffer" : 0,
            "byteLength" : 1548,
            "byteOffset" : 1548
        },
        {
            "buffer" : 0,
            "byteLength" : 1032,
            "byteOffset" : 3096
        },
        {
            "buffer" : 0,
            "byteLength" : 576,
            "byteOffset" : 4128
        },
        {
            "buffer" : 0,
            "byteLength" : 384,
            "byteOffset" : 4704
        },
        {
            "buffer" : 0,
            "byteLength" : 384,
            "byteOffset" : 5088
        },
        {
            "buffer" : 0,
            "byteLength" : 256,
            "byteOffset" : 5472
        },
        {
            "buffer" : 0,
            "byteLength" : 120,
            "byteOffset" : 5728
        },
        {
            "buffer" : 0,
            "byteLength" : 7008,
            "byteOffset" : 5848
        },
        {
            "buffer" : 0,
            "byteLength" : 7008,
            "byteOffset" : 12856
        },
        {
            "buffer" : 0,
            "byteLength" : 4672,
            "byteOffset" : 19864
        },
        {
            "buffer" : 0,
            "byteLength" : 4488,
            "byteOffset" : 24536
        },
        {
            "buffer" : 0,
            "byteLength" : 384,
            "byteOffset" : 29024
        },
        {
            "buffer" : 0,
            "byteLength" : 384,
            "byteOffset" : 29408
        },
        {
            "buffer" : 0,
            "byteLength" : 256,
            "byteOffset" : 29792
        },
        {
            "buffer" : 0,
            "byteLength" : 120,
            "byteOffset" : 30048
        },
        {
            "buffer" : 0,
            "byteLength" : 1548,
            "byteOffset" : 30168
        },
        {
            "buffer" : 0,
            "byteLength" : 1548,
            "byteOffset" : 31716
        },
        {
            "buffer" : 0,
            "byteLength" : 1032,
            "byteOffset" : 33264
        },
        {
            "buffer" : 0,
            "byteLength" : 384,
            "byteOffset" : 34296
        },
        {
            "buffer" : 0,
            "byteLength" : 384,
            "byteOffset" : 34680
        },
        {
            "buffer" : 0,
            "byteLength" : 256,
            "byteOffset" : 35064
        },
        {
            "buffer" : 0,
            "byteLength" : 7008,
            "byteOffset" : 35320
        },
        {
            "buffer" : 0,
            "byteLength" : 7008,
            "byteOffset" : 42328
        },
        {
            "buffer" : 0,
            "byteLength" : 4672,
            "byteOffset" : 49336
        },
        {
            "buffer" : 0,
            "byteLength" : 384,
            "byteOffset" : 54008
        },
        {
            "buffer" : 0,
            "byteLength" : 384,
            "byteOffset" : 54392
        },
        {
            "buffer" : 0,
            "byteLength" : 256,
            "byteOffset" : 54776
        }
    ],
    "buffers" : [
        {
            "byteLength" : 55032,
            "uri" : "plane.bin"
        }
    ]
}
